<?xml version="1.0" encoding="UTF-8" standalone="no"?>
<svg width="256" height="256" viewBox="0 0 256 256" fill="none" xmlns="http://www.w3.org/2000/svg">
  <rect width="256" height="256" rx="32" fill="#121212"/>
  <path d="M128 48C83.8172 48 48 83.8172 48 128C48 172.183 83.8172 208 128 208C172.183 208 208 172.183 208 128C208 83.8172 172.183 48 128 48Z" fill="#121212" stroke="url(#paint0_linear)" stroke-width="8"/>
  <path d="M128 80C128 80 128 128 128 128C128 128 152 140 176 128" stroke="url(#paint1_linear)" stroke-width="12" stroke-linecap="round"/>
  <path d="M128 80C128 80 128 128 128 128C128 128 104 140 80 128" stroke="url(#paint2_linear)" stroke-width="12" stroke-linecap="round"/>
  <path d="M128 128L128 176" stroke="url(#paint3_linear)" stroke-width="12" stroke-linecap="round"/>
  <defs>
    <linearGradient id="paint0_linear" x1="48" y1="48" x2="208" y2="208" gradientUnits="userSpaceOnUse">
      <stop stop-color="#9333EA"/>
      <stop offset="1" stop-color="#4F46E5"/>
    </linearGradient>
    <linearGradient id="paint1_linear" x1="128" y1="80" x2="176" y2="128" gradientUnits="userSpaceOnUse">
      <stop stop-color="#9333EA"/>
      <stop offset="1" stop-color="#4F46E5"/>
    </linearGradient>
    <linearGradient id="paint2_linear" x1="128" y1="80" x2="80" y2="128" gradientUnits="userSpaceOnUse">
      <stop stop-color="#9333EA"/>
      <stop offset="1" stop-color="#4F46E5"/>
    </linearGradient>
    <linearGradient id="paint3_linear" x1="128" y1="128" x2="128" y2="176" gradientUnits="userSpaceOnUse">
      <stop stop-color="#9333EA"/>
      <stop offset="1" stop-color="#4F46E5"/>
    </linearGradient>
  </defs>
</svg>
